<svg width="25" height="25" viewBox="0 0 25 25" fill="none" xmlns="http://www.w3.org/2000/svg">
<path fill-rule="evenodd" clip-rule="evenodd" d="M12.5 0C9.105 0 8.68 0.0149999 7.34625 0.0749999C6.01625 0.13625 5.1075 0.3475 4.3125 0.65625C3.47811 0.969806 2.72219 1.46166 2.0975 2.0975C1.4617 2.72222 0.969842 3.47813 0.65625 4.3125C0.3475 5.1075 0.13625 6.01625 0.0749999 7.34625C0.0137499 8.68 0 9.105 0 12.5C0 15.895 0.0137499 16.32 0.0749999 17.6537C0.13625 18.9837 0.3475 19.8925 0.65625 20.6875C0.969878 21.5219 1.46173 22.2778 2.0975 22.9025C2.72224 23.5383 3.47814 24.0301 4.3125 24.3438C5.1075 24.6525 6.01625 24.8638 7.34625 24.925C8.68 24.985 9.105 25 12.5 25C15.895 25 16.32 24.985 17.6537 24.925C18.9837 24.8638 19.8925 24.6525 20.6875 24.3438C21.5219 24.0302 22.2778 23.5383 22.9025 22.9025C23.5383 22.2778 24.0302 21.5219 24.3438 20.6875C24.6525 19.8925 24.8638 18.9837 24.925 17.6537C24.985 16.32 25 15.895 25 12.5C25 9.105 24.985 8.68 24.925 7.34625C24.8638 6.01625 24.6525 5.1075 24.3438 4.3125C24.0302 3.47813 23.5383 2.72222 22.9025 2.0975C22.2778 1.46166 21.5219 0.969806 20.6875 0.65625C19.8925 0.3475 18.9837 0.13625 17.6537 0.0749999C16.32 0.0149999 15.895 0 12.5 0ZM12.5 2.2525C15.8375 2.2525 16.2325 2.265 17.55 2.325C18.77 2.38125 19.4313 2.58375 19.8725 2.755C20.455 2.9825 20.8725 3.25375 21.31 3.69C21.7475 4.1275 22.0175 4.545 22.245 5.1275C22.415 5.56875 22.62 6.23 22.675 7.44875C22.735 8.7675 22.7475 9.16125 22.7475 12.5C22.7475 15.8375 22.735 16.2325 22.675 17.55C22.6187 18.77 22.415 19.4313 22.245 19.8725C22.0446 20.4155 21.7251 20.9067 21.31 21.31C20.8725 21.7475 20.455 22.0175 19.8725 22.245C19.4313 22.415 18.77 22.62 17.5513 22.675C16.2338 22.735 15.8387 22.7475 12.5 22.7475C9.1625 22.7475 8.76625 22.735 7.45 22.675C6.23 22.6187 5.56875 22.415 5.1275 22.245C4.58448 22.0447 4.09327 21.7252 3.69 21.31C3.27482 20.9067 2.95532 20.4155 2.755 19.8725C2.58375 19.4313 2.38 18.77 2.325 17.5513C2.265 16.2325 2.2525 15.8387 2.2525 12.5C2.2525 9.1625 2.265 8.7675 2.325 7.45C2.38125 6.23 2.58375 5.56875 2.755 5.1275C2.9825 4.545 3.25375 4.1275 3.69 3.69C4.1275 3.2525 4.545 2.9825 5.1275 2.755C5.56875 2.58375 6.23 2.38 7.44875 2.325C8.7675 2.265 9.16125 2.2525 12.5 2.2525ZM12.5 16.6663C11.395 16.6663 10.3353 16.2273 9.55402 15.446C8.77269 14.6647 8.33375 13.605 8.33375 12.5C8.33375 11.395 8.77269 10.3353 9.55402 9.55402C10.3353 8.77269 11.395 8.33375 12.5 8.33375C13.605 8.33375 14.6647 8.77269 15.446 9.55402C16.2273 10.3353 16.6663 11.395 16.6663 12.5C16.6663 13.605 16.2273 14.6647 15.446 15.446C14.6647 16.2273 13.605 16.6663 12.5 16.6663ZM12.5 6.08125C11.6571 6.08125 10.8224 6.24728 10.0437 6.56985C9.26489 6.89242 8.55729 7.36522 7.96126 7.96126C7.36522 8.55729 6.89242 9.26489 6.56985 10.0437C6.24728 10.8224 6.08125 11.6571 6.08125 12.5C6.08125 13.3429 6.24728 14.1776 6.56985 14.9563C6.89242 15.7351 7.36522 16.4427 7.96126 17.0387C8.55729 17.6348 9.26489 18.1076 10.0437 18.4302C10.8224 18.7527 11.6571 18.9188 12.5 18.9188C14.2024 18.9188 15.835 18.2425 17.0387 17.0387C18.2425 15.835 18.9188 14.2024 18.9188 12.5C18.9188 10.7976 18.2425 9.16501 17.0387 7.96126C15.835 6.75751 14.2024 6.08125 12.5 6.08125ZM20.6725 5.8275C20.6725 6.02448 20.6337 6.21954 20.5583 6.40153C20.4829 6.58351 20.3724 6.74887 20.2332 6.88816C20.0939 7.02745 19.9285 7.13794 19.7465 7.21332C19.5645 7.2887 19.3695 7.3275 19.1725 7.3275C18.9755 7.3275 18.7805 7.2887 18.5985 7.21332C18.4165 7.13794 18.2511 7.02745 18.1118 6.88816C17.9726 6.74887 17.8621 6.58351 17.7867 6.40153C17.7113 6.21954 17.6725 6.02448 17.6725 5.8275C17.6725 5.42968 17.8305 5.04814 18.1118 4.76684C18.3931 4.48554 18.7747 4.3275 19.1725 4.3275C19.5703 4.3275 19.9519 4.48554 20.2332 4.76684C20.5145 5.04814 20.6725 5.42968 20.6725 5.8275Z" fill="#3DB7E4"/>
</svg>
