<svg width="25" height="25" viewBox="0 0 25 25" fill="none" xmlns="http://www.w3.org/2000/svg">
<g clip-path="url(#clip0)">
<path d="M21.2969 21.3055H17.5992V15.5031C17.5992 14.1195 17.5703 12.3414 15.6656 12.3414C13.7375 12.3414 13.4438 13.8422 13.4438 15.4008V21.3047H9.74141V9.37422H13.2977V11.0016H13.3453C13.8422 10.0617 15.0508 9.07344 16.8539 9.07344C20.6047 9.07344 21.3008 11.543 21.3008 14.7539V21.3047L21.2969 21.3055ZM5.55859 7.74375C5.276 7.74385 4.99615 7.6882 4.7351 7.57999C4.47404 7.47177 4.2369 7.31312 4.03725 7.11311C3.83761 6.9131 3.67938 6.67567 3.57164 6.41442C3.4639 6.15316 3.40876 5.87322 3.40937 5.59063C3.40984 5.16527 3.53641 4.74961 3.77309 4.39619C4.00978 4.04277 4.34594 3.76747 4.73907 3.60509C5.13221 3.4427 5.56466 3.40054 5.98176 3.48392C6.39886 3.5673 6.78187 3.77248 7.08237 4.07352C7.38286 4.37456 7.58735 4.75794 7.66997 5.17519C7.75259 5.59244 7.70964 6.02482 7.54655 6.41766C7.38345 6.8105 7.10753 7.14616 6.75369 7.3822C6.39984 7.61824 5.98394 7.74406 5.55859 7.74375ZM7.41328 21.3055H3.70312V9.375H7.41328V21.3055ZM23.1531 0H1.84375C0.825781 0 0 0.805469 0 1.80234V23.1984C0 24.1953 0.825781 25.0008 1.84375 25.0008H23.1492C24.1656 25.0008 25 24.1953 25 23.1984V1.80234C25 0.805469 24.1656 0 23.1492 0H23.1531Z" fill="#3DB7E4"/>
</g>
<defs>
<clipPath id="clip0">
<rect width="25" height="25" fill="white"/>
</clipPath>
</defs>
</svg>
